<svg xmlns="http://www.w3.org/2000/svg" width="51.258" height="32.793" viewBox="0 0 51.258 32.793">
  <g id="軽自動車のアイコン" transform="translate(0)">
    <path id="パス_26" data-name="パス 26" d="M67.995,302.828a5.854,5.854,0,1,1-5.854,5.854A5.86,5.86,0,0,1,67.995,302.828Zm0,8.552a2.7,2.7,0,1,0-2.7-2.7A2.7,2.7,0,0,0,67.995,311.38Z" transform="translate(-28.812 -281.743)" fill="#008cfd"/>
    <path id="パス_27" data-name="パス 27" d="M342.888,302.828a5.854,5.854,0,1,1-5.857,5.854A5.86,5.86,0,0,1,342.888,302.828Zm0,8.552a2.7,2.7,0,1,0-2.7-2.7A2.7,2.7,0,0,0,342.888,311.38Z" transform="translate(-331.224 -281.743)" fill="#008cfd"/>
    <path id="パス_28" data-name="パス 28" d="M112.315,352.063a.924.924,0,1,1-.924.924A.923.923,0,0,1,112.315,352.063Z" transform="translate(-73.133 -326.049)" fill="#008cfd"/>
    <path id="パス_29" data-name="パス 29" d="M387.209,352.063a.924.924,0,1,1-.928.924A.923.923,0,0,1,387.209,352.063Z" transform="translate(-375.545 -326.049)" fill="#008cfd"/>
    <path id="パス_30" data-name="パス 30" d="M3.032,103.954l8.389-.932a.309.309,0,0,0,.28-.261L13.045,94.5c.743-1.916,2.4-2.282,4.851-2.282H46.268a4.99,4.99,0,0,1,4.99,4.99v20.02a2.494,2.494,0,0,1-2.493,2.5H46.112c.016-.188.025-.375.025-.566a6.955,6.955,0,0,0-13.91,0c0,.191.011.379.025.566H18.59c.016-.188.027-.375.027-.566a6.955,6.955,0,0,0-13.909,0c0,.191.009.379.023.566H2.5a2.5,2.5,0,0,1-2.5-2.5v-9.6A3.742,3.742,0,0,1,3.032,103.954Zm29.862-.942H47.76V97.3a2.233,2.233,0,0,0-2.232-2.231H32.894Zm-2.418,0V95.069h-11.9c-1.627,0-2.037.189-2.187.4l-1.223,7.509c0,.011,0,.023-.006.034Z" transform="translate(0 -92.219)" fill="#008cfd"/>
  </g>
</svg>
