<svg xmlns="http://www.w3.org/2000/svg" width="51.258" height="32.793"><g fill="#008cfd"><path d="M39.183 21.085a5.854 5.854 0 1 1-5.854 5.854 5.86 5.86 0 0 1 5.854-5.854m0 8.552a2.7 2.7 0 1 0-2.7-2.7 2.7 2.7 0 0 0 2.7 2.7" data-name="パス 26"/><path d="M11.664 21.085a5.854 5.854 0 1 1-5.857 5.854 5.86 5.86 0 0 1 5.857-5.854m0 8.552a2.7 2.7 0 1 0-2.7-2.7 2.7 2.7 0 0 0 2.7 2.7" data-name="パス 27"/><path d="M39.182 26.014a.924.924 0 1 1-.924.924.923.923 0 0 1 .924-.924" data-name="パス 28"/><path d="M11.664 26.014a.924.924 0 1 1-.928.924.923.923 0 0 1 .928-.924" data-name="パス 29"/><path d="m3.032 11.735 8.389-.932a.31.31 0 0 0 .28-.261l1.344-8.261c.743-1.916 2.4-2.282 4.851-2.282h28.372a4.99 4.99 0 0 1 4.99 4.99v20.02a2.494 2.494 0 0 1-2.493 2.5h-2.653q.025-.28.025-.566a6.955 6.955 0 0 0-13.91 0c0 .191.011.379.025.566H18.59a7 7 0 0 0 .027-.566 6.955 6.955 0 0 0-13.909 0q.001.286.023.566H2.5a2.5 2.5 0 0 1-2.5-2.5v-9.6a3.74 3.74 0 0 1 3.032-3.674m29.862-.942H47.76V5.081a2.233 2.233 0 0 0-2.232-2.231H32.894Zm-2.418 0V2.85h-11.9c-1.627 0-2.037.189-2.187.4l-1.223 7.509q.002.017-.006.034Z" data-name="パス 30"/></g></svg>