<svg xmlns="http://www.w3.org/2000/svg" width="24.418" height="16.291"><path fill="#fff" d="m24.167.383-.037-.04-.022-.025-.066-.058-.015-.015-.018-.015a1.1 1.1 0 0 0-.674-.23H1.079a1.1 1.1 0 0 0-.507.124L.55.139.444.205.407.23.339.294.31.32.248.394.241.401a1.02 1.02 0 0 0-.24.656v14.177a.9.9 0 0 0 .04.27 1 1 0 0 0 .281.481l.011.011.055.044.044.037.066.036.029.018a1.1 1.1 0 0 0 .558.161h22.251a1 1 0 0 0 .412-.084l.026-.011h.011l.04-.015.04-.022.277-.161v-.062l.062-.073.015-.018.011-.018a1 1 0 0 0 .19-.59V1.057a1 1 0 0 0-.248-.667s-.002-.004-.005-.007m-.734.559-.031.028-.087.069-.069.055-8.892 7.227-.215.175-.084.066-.3.241-.86.7-.157.109a.94.94 0 0 1-1.064 0l-.16-.109-.856-.7-.3-.24-.084-.069-.211-.171-8.886-7.229-.077-.059-.088-.069-.007-.007L.987.946.982.939l.036-.011.048-.011h22.27a.2.2 0 0 1 .086.024ZM1.093 14.416V1.968L7.566 7.23l1.868 1.521-5.344 3.633Zm22.227 0-6.461-4.39-1.878-1.279 8.344-6.785v7.954Zm-22.315.941.238-.162 8.787-5.966 1.053.853.182.124a1.69 1.69 0 0 0 1.888 0l.171-.117.011-.007 1.053-.853 8.787 5.966.077.055.074.049.077.061-.067.017H1.082a.2.2 0 0 1-.071-.016Z"/></svg>