<svg xmlns="http://www.w3.org/2000/svg" width="34.843" height="30.038" viewBox="0 0 34.843 30.038"><g transform="translate(6.534 -3.142) rotate(13)"><path d="M10.217,17.684a29.392,29.392,0,0,0,5.77,3.323,7.333,7.333,0,0,0,2.082.678h.053c1.426,0,3.268-2.67,3.487-3.536a2.7,2.7,0,0,0-.957-2.787l-1.911-1.49a2.669,2.669,0,0,0-1.656-.569,2.7,2.7,0,0,0-1.824.707,8.893,8.893,0,0,0-.912.932.139.139,0,0,1-.072.014c-.8,0-3.6-2.433-4.342-3.211-.789-.758-3.248-3.586-3.205-4.353,0-.051.018-.062.023-.066a8.562,8.562,0,0,0,.923-.9,2.694,2.694,0,0,0,.138-3.479L6.323,1.034a2.843,2.843,0,0,0-.7-.625A2.688,2.688,0,0,0,4.5.019,2.878,2.878,0,0,0,4.173,0a2.588,2.588,0,0,0-.636.078C2.773.27-.066,2.114,0,3.618A7.347,7.347,0,0,0,.679,5.7a29.377,29.377,0,0,0,3.329,5.779A29.147,29.147,0,0,0,10.217,17.684Z" transform="translate(0 7.359)" fill="#f8ff36"/><path d="M15.088,15.079A15.441,15.441,0,0,0,10.54,4.541,15.443,15.443,0,0,0,.227.012C.155.009.084,0,.012,0H0L0,2.288A13.163,13.163,0,0,1,8.923,6.158a13.183,13.183,0,0,1,3.877,8.92Z" transform="translate(13.966 0)" fill="#f8ff36"/><path d="M10.512,10.5A10.91,10.91,0,0,0,7.306,3.2,10.885,10.885,0,0,0,.221.019C.151.015.082,0,.011,0H0L0,2.29A8.633,8.633,0,0,1,5.69,4.817,8.641,8.641,0,0,1,8.223,10.5Z" transform="translate(13.966 4.575)" fill="#f8ff36"/><path d="M.172.019C.118.014.065,0,.011,0H0L0,2.3A4.088,4.088,0,0,1,2.456,3.472,4.1,4.1,0,0,1,3.637,5.925h2.29a6.35,6.35,0,0,0-1.855-4.07A6.345,6.345,0,0,0,.172.019Z" transform="translate(13.966 9.154)" fill="#f8ff36"/></g></svg>