<svg xmlns="http://www.w3.org/2000/svg" width="34.843" height="30.038"><g fill="#f8ff36"><path d="M10.856 23.557a29.4 29.4 0 0 0 4.874 4.536 7.3 7.3 0 0 0 1.876 1.13l.052.011c1.39.32 3.785-1.866 4.193-2.66a2.7 2.7 0 0 0-.305-2.932l-1.527-1.881a2.67 2.67 0 0 0-1.486-.927 2.7 2.7 0 0 0-1.936.278 9 9 0 0 0-1.098.703.14.14 0 0 1-.074-.002c-.78-.18-2.96-3.18-3.508-4.106-.598-.916-2.358-4.224-2.144-4.962.012-.05.032-.057.038-.06a8.6 8.6 0 0 0 1.101-.669 2.694 2.694 0 0 0 .917-3.358l-1.022-2.2a2.8 2.8 0 0 0-.542-.766 2.7 2.7 0 0 0-1.006-.633 3 3 0 0 0-.314-.092 2.6 2.6 0 0 0-.638-.067c-.787.015-3.968 1.173-4.242 2.654a7.4 7.4 0 0 0 .193 2.181 29.4 29.4 0 0 0 1.944 6.38 29.2 29.2 0 0 0 4.654 7.442m20.595-5.471a15.44 15.44 0 0 0-2.06-11.29A15.44 15.44 0 0 0 20.36.061c-.07-.019-.137-.043-.207-.06L20.142 0l-.515 2.229a13.16 13.16 0 0 1 7.824 5.778 13.18 13.18 0 0 1 1.771 9.564Z"/><path d="M26.993 17.053a10.9 10.9 0 0 0-1.481-7.834 10.9 10.9 0 0 0-6.188-4.693c-.067-.02-.131-.05-.2-.066l-.011-.003-.515 2.232a8.63 8.63 0 0 1 4.975 3.742 8.64 8.64 0 0 1 1.19 6.107Zm-8.747-8.077c-.051-.017-.1-.042-.152-.054l-.011-.003-.518 2.241a4.1 4.1 0 0 1 2.13 1.695 4.1 4.1 0 0 1 .599 2.655l2.231.515a6.35 6.35 0 0 0-.892-4.382 6.35 6.35 0 0 0-3.387-2.667"/></g></svg>