<svg xmlns="http://www.w3.org/2000/svg" width="24.418" height="16.291" viewBox="0 0 24.418 16.291"><g transform="translate(0 0)"><path d="M24.167,85.589l-.037-.04-.022-.025-.066-.058-.015-.015-.018-.015a1.114,1.114,0,0,0-.674-.23H1.079a1.115,1.115,0,0,0-.507.124l-.022.015-.106.066-.037.025L.339,85.5l-.029.026L.248,85.6l-.007.007a1.02,1.02,0,0,0-.24.656V100.44a.9.9,0,0,0,.04.27,1.023,1.023,0,0,0,.281.481l.011.011.055.044.044.037.066.036.029.018a1.081,1.081,0,0,0,.558.161H23.336a1.029,1.029,0,0,0,.412-.084l.026-.011.011,0,.04-.015.04-.022.277-.161v-.062l.062-.073.015-.018.011-.018a1.009,1.009,0,0,0,.19-.59V86.263a1,1,0,0,0-.248-.667S24.17,85.592,24.167,85.589Zm-.734.559-.031.028-.087.069-.069.055-8.892,7.227-.215.175-.084.066-.3.241-.86.7-.157.109v0a.944.944,0,0,1-1.064,0v0l-.16-.109-.856-.7-.3-.24-.084-.069-.211-.171L1.177,86.3,1.1,86.241l-.088-.069-.007-.007-.018-.013-.005-.007,0,0,0,0,.036-.011.048-.011H23.336a.174.174,0,0,1,.086.024ZM1.093,99.622V87.174l6.473,5.262,1.868,1.521L4.09,97.59Zm22.227,0-6.461-4.39-1.878-1.279,8.344-6.785v7.954Zm-22.315.941.238-.162,8.787-5.966,1.053.853.182.124v0a1.691,1.691,0,0,0,1.888,0v0l.171-.117.011-.007,1.053-.853,8.787,5.966.077.055.074.049.077.061-.067.017H1.082a.184.184,0,0,1-.071-.016Z" transform="translate(0 -85.206)" fill="#fff"/></g></svg>